<?xml version="1.0" encoding="UTF-8"?>
<svg xmlns="http://www.w3.org/2000/svg" id="Layer_1" data-name="Layer 1" viewBox="0 0 512 512" width="512" height="512"><path d="M455.887,234h-.044a34.013,34.013,0,0,0-34.023,33.916l-.378,172.006a5.939,5.939,0,0,0,.635,2.672l0,0,27.951,56.09A6,6,0,0,0,455.386,502h.008a6,6,0,0,0,5.363-3.31l28.1-56.02,0,0a5.962,5.962,0,0,0,.641-2.675l.374-171.983A34,34,0,0,0,455.887,234Zm-22.141,67.566,16.079.021-.343,132.348-16.026-.021Zm21.665,181.016-18.269-36.663,36.633.048Zm22.093-48.61-16.022-.021.343-132.348,15.967.021Zm.314-144.334-44.046-.065.048-21.633A22,22,0,0,1,455.843,246h.028a21.925,21.925,0,0,1,21.994,21.96Z"/><path d="M360.849,103H360V86.09a6.151,6.151,0,0,0-1.983-4.319l-72.766-70.09A6.183,6.183,0,0,0,281.012,10H59.7A37.727,37.727,0,0,0,22,47.568v380.6A37.954,37.954,0,0,0,59.7,466H72.851a37.456,37.456,0,0,0,37.534,36H360.849A37.258,37.258,0,0,0,398,464.432V140.341A37.063,37.063,0,0,0,360.849,103ZM287,30.12,339.005,80H287ZM59.7,454A25.94,25.94,0,0,1,34,428.167V47.568A25.712,25.712,0,0,1,59.7,22H275V86.253A5.8,5.8,0,0,0,281.012,92H348V428.167A26.08,26.08,0,0,1,322.135,454ZM386,464.432A25.244,25.244,0,0,1,360.849,490H110.385a25.732,25.732,0,0,1-25.534-24H322.135A38.093,38.093,0,0,0,360,428.167V115h.849A25.051,25.051,0,0,1,386,140.341Z"/><path d="M92.66,312a6,6,0,1,0,0,12H217.617a6,6,0,0,0,0-12Z"/><path d="M289.233,350H92.66a6,6,0,1,0,0,12H289.233a6,6,0,0,0,0-12Z"/><path d="M261.023,387H92.66a6,6,0,1,0,0,12H261.023a6,6,0,0,0,0-12Z"/><path d="M176.094,274.8a96.647,96.647,0,1,0-25.15-189.961l-3.227-9.683a6,6,0,0,0-5.693-4.1,74.674,74.674,0,0,0-74.663,74.673,6,6,0,0,0,4.1,5.693l10.793,3.6A96.647,96.647,0,0,0,176.094,274.8Zm0-181.294a84.625,84.625,0,1,1-82.415,65.317l80.785,26.923a6,6,0,0,0,7.589-7.59L154.745,96.242A84.511,84.511,0,0,1,176.094,93.508ZM79.5,141.452A62.691,62.691,0,0,1,137.748,83.2l29.126,87.372Z"/><path d="M54,40.583a6,6,0,0,0-6,6v4.3a6,6,0,0,0,12,0v-4.3A6,6,0,0,0,54,40.583Z"/><path d="M54,65.878a6,6,0,0,0-6,6v72a6,6,0,0,0,12,0v-72A6,6,0,0,0,54,65.878Z"/></svg>
