<svg id="Bold" enable-background="new 0 0 24 24" height="512" viewBox="0 0 24 24" width="512" xmlns="http://www.w3.org/2000/svg"><path d="m22.25 0h-20.5c-.965 0-1.75.785-1.75 1.75v2.5c0 .965.785 1.75 1.75 1.75h20.5c.965 0 1.75-.785 1.75-1.75v-2.5c0-.965-.785-1.75-1.75-1.75z"/><path d="m.75 11.5h14.5c.414 0 .75-.336.75-.75s-.336-.75-.75-.75h-14.5c-.414 0-.75.336-.75.75s.336.75.75.75z"/><path d="m.75 14.5h14.5c.414 0 .75-.336.75-.75s-.336-.75-.75-.75h-14.5c-.414 0-.75.336-.75.75s.336.75.75.75z"/><path d="m.75 20.5h14.5c.414 0 .75-.336.75-.75s-.336-.75-.75-.75h-14.5c-.414 0-.75.336-.75.75s.336.75.75.75z"/><path d="m.75 23.5h14.5c.414 0 .75-.336.75-.75s-.336-.75-.75-.75h-14.5c-.414 0-.75.336-.75.75s.336.75.75.75z"/><circle cx="21" cy="12" r="3"/><circle cx="21" cy="21" r="3"/></svg>