<?xml version="1.0" encoding="UTF-8"?>
<!-- Generator: Adobe Illustrator 25.2.3, SVG Export Plug-In . SVG Version: 6.00 Build 0)  -->
<svg xmlns="http://www.w3.org/2000/svg" xmlns:xlink="http://www.w3.org/1999/xlink" version="1.1" id="Capa_1" x="0px" y="0px" viewBox="0 0 512 512" style="enable-background:new 0 0 512 512;" xml:space="preserve" width="512" height="512">
<g>
	<g>
		<path style="fill:#FFFFFF;" d="M255.989,512c-46.651,0-92.21-12.861-131.751-37.192c-20.043-12.331-38.303-27.442-54.272-44.914    C27.55,383.419,4.193,323.158,4.193,260.205c0-61.054,22.126-119.943,62.3-165.823c39.215-44.782,92.895-74.235,151.404-83.129    c1.001-0.495,1.943-0.889,2.827-1.26l0.921-0.388C232.182,5.128,245.996,0,259.668,0c9.222,0,17.518,2.296,24.659,6.824    c1.934,1.227,3.713,2.535,5.327,3.814c124.649,16.624,218.153,123.207,218.153,249.567c0,68.193-26.815,132.031-75.506,179.755    c-5.69,5.621-11.921,11.168-18.481,16.445C369.323,492.254,313.268,512,255.989,512z"/>
	</g>
	<g>
		<g>
			<path style="fill:#FFB9C2;" d="M496.065,260.205c0,66.667-27.367,126.918-71.467,170.144     c-5.563,5.496-11.418,10.677-17.497,15.568c-40.87,32.93-92.822,52.625-149.395,52.625c-45.716,0-88.426-12.876-124.698-35.195     c-19.067-11.732-36.362-26.088-51.391-42.53C42.946,378.442,19.37,322.094,19.37,260.205     c0-120.233,89.009-219.651,204.711-236.003c10.969-1.548,22.207-2.355,33.625-2.355c9.511,0,18.887,0.561,28.107,1.66     C404.208,37.391,496.065,138.064,496.065,260.205z"/>
		</g>
		<g>
			<g>
				<path style="fill:#331510;" d="M403.714,184.229c-5.361,9.197-9.713,20.458-5.608,30.283c1.458,3.477,3.881,6.46,5.989,9.601      c12.808,19.089,15.141,44.639,3.477,64.424c-0.135,0.247-0.695,1.458-0.897,1.66h-26.738      c-1.032-9.803-1.772-18.977-2.916-29.004c-1.862,9.915-4.711,19.673-8.524,29.004H127.626      c-7.851-7.223-14.379-14.221-20.166-23.643c0.897,8.21,3.185,16.24,6.797,23.643h-11.171      c-2.692-7.402-6.954-15.724-8.075-23.508c-1.009-7.178-1.256-14.94,2.445-21.131c4.083-6.819,12.427-10.969,14.424-18.641      c2.445-9.444-5.877-17.788-11.328-25.909c-7.313-10.902-9.982-24.809-7.223-37.64c1.413-6.572,4.397-13.123,9.848-17.048      c3.208-2.355,7.088-3.634,10.498-5.653c11.463-6.819,16.285-20.906,18.282-34.074c2.019-13.167,2.243-27.008,8.12-38.941      c5.563-11.261,15.725-19.718,26.873-25.483c11.149-5.742,23.374-9.062,35.487-12.338c3.567-0.964,7.358-1.929,10.879-0.875      c3.544,1.054,4.688,1.323,5.159,4.823c0.381-3.073,0.583-4.195,2.4-6.415c3.051-3.701,4.374-3.926,7.784-5.384      c16.465-6.999,35.532-13.077,50.18-3.791c7.47,4.733,13.212,11.934,20.974,16.151c9.713,5.294,21.31,5.361,32.01,8.12      c14.805,3.836,29.027,14.536,31.92,29.543c1.48,7.559-0.022,15.321-0.404,23.015c-0.404,7.672,0.583,16.061,5.877,21.647      c7.784,8.143,21.041,6.886,31.247,11.642c10.049,4.688,16.667,15.882,15.926,26.963      C415.693,165.902,409.075,175.032,403.714,184.229z"/>
			</g>
			<g>
				<g>
					<g>
						<path style="fill:#FF8476;" d="M299.99,335.44c-0.202-0.202-0.426-0.404-0.628-0.628c-0.426-0.426-0.83-0.897-1.211-1.368        c-1.57-1.929-2.871-4.15-3.948-6.528c-0.247-0.516-0.471-1.032-0.695-1.57c-0.359-0.92-0.718-1.862-1.009-2.804        c-0.157-0.449-0.291-0.875-0.426-1.323c-0.673-2.243-1.211-4.531-1.615-6.819c-0.09-0.449-0.179-0.92-0.247-1.368        c-0.067-0.449-0.135-0.897-0.202-1.346l-0.067-0.471c-0.112-0.74-0.202-1.481-0.292-2.221        c-0.022-0.292-0.067-0.561-0.09-0.852c-0.269-2.49-0.404-4.868-0.494-7.021c-0.224-6.326,0.157-10.857,0.157-10.857H214.75        c0,0,0,0.09,0.022,0.269c0,0.135,0.023,0.292,0.023,0.493c0.022,0.292,0.045,0.673,0.067,1.122        c0.022,0.291,0.045,0.628,0.045,0.987c0.09,2.176,0.135,5.406-0.045,9.219c-0.023,0-0.023,0-0.023,0v0.292        c0,0.404-0.022,0.807-0.067,1.211c0,0.381-0.045,0.763-0.067,1.144c-0.045,0.718-0.112,1.458-0.202,2.221        c-0.045,0.583-0.112,1.166-0.179,1.772c-0.045,0.381-0.09,0.785-0.135,1.166c-0.022,0.112-0.022,0.247-0.045,0.359        c-0.112,0.83-0.224,1.66-0.382,2.512c-0.067,0.449-0.135,0.92-0.247,1.368c-1.279,7.088-3.679,14.289-7.986,19.403        c-0.337,0.381-0.651,0.74-1.009,1.099c-0.314,0.337-0.628,0.628-0.965,0.942c-0.067,0.067-0.157,0.157-0.247,0.224        l15.998,41.253h68.088L299.99,335.44z"/>
					</g>
					<g>
						<g style="opacity:0.43;">
							<path style="fill:#A65236;" d="M299.99,335.44c0-0.022,0-0.022,0-0.022c-0.224-0.179-0.426-0.382-0.628-0.606         c-0.426-0.426-0.83-0.897-1.211-1.368c-1.57-1.929-2.871-4.15-3.948-6.528c-0.247-0.516-0.471-1.032-0.695-1.57         c-0.359-0.92-0.718-1.862-1.009-2.804c-0.157-0.449-0.291-0.875-0.426-1.323c-0.673-2.243-1.211-4.531-1.615-6.819         c-0.09-0.449-0.179-0.92-0.247-1.368c-0.067-0.449-0.135-0.897-0.202-1.346l-0.067-0.471         c-0.112-0.74-0.202-1.481-0.292-2.221c-0.022-0.292-0.067-0.561-0.09-0.852c-0.269-2.49-0.404-4.868-0.494-7.021         c-0.224-6.326,0.157-10.857,0.157-10.857H214.75c0,0,0,0.09,0.022,0.269c0,0.135,0.023,0.292,0.023,0.493         c0.022,0.292,0.045,0.673,0.067,1.122c0.022,0.291,0.045,0.628,0.045,0.987c0.09,2.176,0.135,5.406-0.045,9.219         c0,0.09,0,0.202-0.023,0.292c0,0.404-0.022,0.807-0.067,1.211c0,0.381-0.045,0.763-0.067,1.144         c-0.045,0.718-0.112,1.458-0.202,2.221c-0.045,0.583-0.112,1.166-0.179,1.772c-0.045,0.381-0.09,0.785-0.135,1.166         c-0.022,0.112-0.022,0.247-0.045,0.359c-0.112,0.83-0.224,1.66-0.382,2.512c-0.067,0.449-0.135,0.92-0.247,1.368         c-1.279,7.088-3.679,14.289-7.986,19.403c-0.337,0.381-0.651,0.74-1.009,1.099c-0.314,0.337-0.628,0.628-0.965,0.942         c-0.067,0.067-0.157,0.157-0.247,0.224l20.033,60.425h66.217L299.99,335.44z"/>
						</g>
						<g>
							<path style="fill:#331510;" d="M289.56,308.141c-9.533,8.255-21.422,13.728-33.962,14.895         c-14.782,1.368-29.991-3.522-41.409-12.876c1.368-10.61,0.561-19.897,0.561-19.897h74.473         C289.223,290.263,288.528,298.406,289.56,308.141z"/>
						</g>
					</g>
				</g>
				<g>
					<g>
						<path style="fill:#FF8476;" d="M365.737,132.883c0.112,1.817,0.157,3.656,0.157,5.473c0,8.883-1.099,17.474-3.118,25.729        l-0.74,3.14l-0.359,1.458l-13.482,56.617l-0.179,0.74c-0.246,1.256-0.516,2.602-0.83,3.97        c-2.512,11.35-6.73,25.953-9.466,35.509c-0.023,0.045-0.023,0.09-0.045,0.135c-5.316,18.259-23.598,29.296-46.209,34.926        c-0.785,0.202-1.593,0.382-2.4,0.538c-19.134,4.419-41.095,5.07-60.902,3.051c-4.576-0.471-9.017-1.077-13.302-1.817        c-0.023,0-0.023,0-0.023,0c-19.493-3.342-35.352-9.399-41.835-16.891c-4.845-5.608-8.658-15.433-11.664-27.389        c-1.705-6.73-3.14-14.132-4.374-21.781v-0.022l-0.471-3.006c-0.157,0.022-0.291,0.067-0.449,0.09l-0.449-5.361l-4.8-57.291        c0-0.112-0.022-0.247-0.022-0.359c-0.068-1.705-0.135-3.342-0.202-4.89c-0.404-9.915-0.471-16.218-0.471-16.218l0.359-0.023        c-0.359-3.567-0.538-7.178-0.538-10.857c0-44.325,26.716-82.414,64.94-99.036c1.368-0.606,2.759-1.166,4.172-1.705v-0.023        c12.068-4.643,25.168-7.2,38.874-7.2c14.379,0,28.084,2.804,40.624,7.896c0.538,0.224,1.077,0.449,1.615,0.695        c36.496,15.523,62.652,50.539,65.456,91.992l0.291-0.045C365.894,130.931,365.85,131.604,365.737,132.883z"/>
					</g>
					<g style="opacity:0.43;">
						<path style="fill:#A65236;" d="M365.737,132.883c0.112,1.817,0.157,3.656,0.157,5.473c0,8.883-1.099,17.474-3.118,25.729        l-0.74,3.14l-0.359,1.458l-13.482,56.617l-0.179,0.74c-0.246,1.256-0.516,2.602-0.83,3.97        c-2.512,11.35-6.73,25.953-9.466,35.509c-0.023,0.045-0.023,0.09-0.045,0.135c-5.316,18.259-23.598,29.296-46.209,34.926        c-0.785,0.202-1.593,0.382-2.4,0.538c-19.134,4.419-41.095,5.07-60.902,3.051c-4.576-0.471-9.017-1.077-13.302-1.817        c-0.023,0-0.023,0-0.023,0c-19.493-3.342-35.352-9.399-41.835-16.891c-4.845-5.608-8.658-15.433-11.664-27.389        c-1.705-6.73-3.14-14.132-4.374-21.781v-0.022l-0.471-3.006c-0.157,0.022-0.291,0.067-0.449,0.09l-0.449-5.361l-4.8-57.291        c0-0.112-0.022-0.247-0.022-0.359c-0.068-1.705-0.135-3.342-0.202-4.89c-0.404-9.915-0.471-16.218-0.471-16.218l0.359-0.023        c-0.359-3.567-0.538-7.178-0.538-10.857c0-44.325,26.716-82.414,64.94-99.036c1.368-0.606,2.759-1.166,4.172-1.705v-0.023        c12.068-4.643,25.168-7.2,38.874-7.2c14.379,0,28.084,2.804,40.624,7.896c0.538,0.224,1.077,0.449,1.615,0.695        c36.496,15.523,62.652,50.539,65.456,91.992l0.291-0.045C365.894,130.931,365.85,131.604,365.737,132.883z"/>
					</g>
				</g>
			</g>
			<g>
				<g>
					<path style="fill:#FADED3;" d="M424.598,430.349c-5.563,5.496-11.418,10.677-17.497,15.568       c-40.87,32.93-92.822,52.625-149.395,52.625c-45.716,0-88.426-12.876-124.698-35.195       c-19.067-11.732-36.362-26.088-51.391-42.53c3.589-14.019,8.053-25.616,13.436-30.327       c12.058-10.551,28.778-16.226,43.168-22.851c16.133-7.428,32.343-14.69,48.625-21.786c4.083-1.779,8.173-4.098,11.932-6.53       c0.314-0.202,0.628-0.381,0.92-0.583c1.256-0.794,2.506-1.675,3.611-2.669c0.09-0.068,0.179-0.157,0.247-0.224       c13.302,15.478,34.365,24.159,54.711,22.028c16.106-1.682,31.247-10.117,41.723-22.432c1.718,1.718,3.797,3.017,5.855,4.284       c0.291,0.179,0.605,0.381,0.942,0.561c23.514,12.554,48.36,22.319,72.37,33.844c9.898,4.751,24.837,9.724,31.773,18.487       c6.551,8.277,9.326,19.757,11.825,29.786C423.413,425.041,424.023,427.691,424.598,430.349z"/>
				</g>
				<g>
					<g>
						<path style="fill:#331510;" d="M306.787,340.286c-12.719,16.083-32.683,25.908-53.275,25.998h-0.337        c-21.131,0-41.611-10.229-54.397-26.963c0.314-0.202,0.628-0.381,0.92-0.583c12.606,16.42,32.75,26.424,53.477,26.424h0.314        c20.211-0.09,39.794-9.713,52.356-25.438C306.136,339.904,306.45,340.106,306.787,340.286z"/>
					</g>
				</g>
			</g>
			<g>
				<g>
					<g>
						<g>
							<path style="fill:#FF8476;" d="M128.113,167.884c-11.484,3.268-19.676,15.026-19.648,26.965         c0.029,11.94,7.738,23.289,18.447,28.568c10.819,5.334,23.485,4.776,35.529,4.101c0.377-0.021-3.104-41.198-4.593-45.747         C154.16,170.5,138.968,164.795,128.113,167.884z"/>
						</g>
						<g>
							<path style="fill:#FF8476;" d="M379.357,167.884c11.484,3.268,19.676,15.026,19.648,26.965         c-0.029,11.94-7.738,23.289-18.447,28.568c-10.82,5.334-23.485,4.776-35.529,4.101c-0.377-0.021,3.104-41.198,4.593-45.747         C353.31,170.5,368.502,164.795,379.357,167.884z"/>
						</g>
					</g>
					<g style="opacity:0.43;">
						<g>
							<path style="fill:#A65236;" d="M128.113,167.884c-11.484,3.268-19.676,15.026-19.648,26.965         c0.029,11.94,7.738,23.289,18.447,28.568c10.819,5.334,23.485,4.776,35.529,4.101c0.377-0.021-3.104-41.198-4.593-45.747         C154.16,170.5,138.968,164.795,128.113,167.884z"/>
						</g>
						<g>
							<path style="fill:#A65236;" d="M379.357,167.884c11.484,3.268,19.676,15.026,19.648,26.965         c-0.029,11.94-7.738,23.289-18.447,28.568c-10.82,5.334-23.485,4.776-35.529,4.101c-0.377-0.021,3.104-41.198,4.593-45.747         C353.31,170.5,368.502,164.795,379.357,167.884z"/>
						</g>
					</g>
				</g>
				<g>
					<g>
						<path style="fill:#331510;" d="M350.174,214.04c-0.193,0-0.388-0.05-0.566-0.154c-0.534-0.313-0.714-1-0.4-1.536        c9.689-16.526,24.617-30.021,42.034-37.997c0.562-0.255,1.229-0.009,1.487,0.554c0.258,0.563,0.01,1.228-0.554,1.487        c-17.002,7.787-31.575,20.96-41.031,37.092C350.934,213.842,350.559,214.04,350.174,214.04z"/>
					</g>
					<g>
						<path style="fill:#331510;" d="M153.251,215.773c-0.422,0-0.826-0.24-1.017-0.648c-4.741-10.137-9.337-17.825-14.466-24.193        c-6.409-7.962-13.669-13.836-21.577-17.457c-0.564-0.259-0.811-0.924-0.554-1.487c0.259-0.563,0.923-0.811,1.487-0.554        c8.229,3.769,15.762,9.855,22.392,18.091c5.244,6.512,9.93,14.345,14.749,24.65c0.262,0.561,0.021,1.228-0.541,1.49        C153.571,215.738,153.41,215.773,153.251,215.773z"/>
					</g>
				</g>
			</g>
			<g>
				<path style="fill:#331510;" d="M367.134,133.496c0.114,1.851,0.16,3.724,0.16,5.575c0,9.048-1.12,17.798-3.176,26.206      l-0.754,3.199l-0.366,1.485c-4.867,1.851-10.693-1.371-13.571-5.849c-3.039-4.752-3.838-10.533-5.323-15.947      c-1.508-5.438-4.181-11.104-9.276-13.48c-4.798-2.239-10.396-1.005-15.651-0.32c-6.969,0.868-14.371,0.571-20.586-2.764      c-11.218-6.032-15.376-20.22-15.399-32.992c-0.023-7.014,0.685-14.805-3.656-20.334c-3.953-5.004-10.898-6.534-17.296-6.489      c-6.374,0.023-12.772,1.28-19.1,0.366c-8.956-1.302-16.953-7.014-22.116-14.485c-3.976-5.78-6.374-12.52-7.562-19.466      c13.434-5.849,28.262-9.093,43.844-9.093c14.645,0,28.605,2.856,41.377,8.042c0.548,0.228,1.097,0.457,1.645,0.708      c37.173,15.81,63.813,51.476,66.669,93.697l0.297-0.046C367.294,131.508,367.249,132.194,367.134,133.496z"/>
			</g>
			<g>
				<path style="fill:#331510;" d="M213.07,55.637c-6.344,6.552-15.042,10.151-23.3,14.026c-8.236,3.876-16.679,8.49-21.547,16.195      c-3.022,4.752-4.452,10.497-4.037,16.103c0.692,9.666,6.644,18.387,7.221,28.053c0.6,9.966-4.545,19.332-10.197,27.522      c-3.53,5.099-7.313,10.012-11.396,14.695c-0.069-1.753-0.138-3.437-0.208-5.029c-0.415-10.197-0.484-16.68-0.484-16.68      l0.369-0.023c-0.369-3.668-0.554-7.382-0.554-11.166c0-45.586,27.476-84.758,66.787-101.853c1.407-0.623,2.837-1.2,4.291-1.753      C221.282,42.649,218.145,50.4,213.07,55.637z"/>
			</g>
			<g>
				<path style="fill:#331510;" d="M344.796,149.364c0.169,12.845,1.625,25.672,4.337,38.229      c6.217-5.148,11.871-11.292,15.787-18.35c2.091-3.769,3.845-7.969,3.434-12.26c-0.503-5.238-4.286-9.783-8.958-12.204      C355.655,142.842,347.663,146.279,344.796,149.364z"/>
			</g>
			<g>
				<path style="fill:#331510;" d="M160.579,150.376c1.349,12.775,1.419,25.684,0.209,38.473      c-6.781-4.378-13.121-9.81-17.844-16.356c-2.522-3.496-4.76-7.459-4.858-11.769c-0.12-5.261,3.101-10.22,7.454-13.176      C149.026,145.182,157.368,147.651,160.579,150.376z"/>
			</g>
			<g>
				<g>
					<g>
						<g>
							<path style="fill:#331510;" d="M206.932,171.701c0,5.588-4.53,10.118-10.118,10.118c-5.588,0-10.118-4.53-10.118-10.118         c0-5.588,4.53-10.118,10.118-10.118C202.402,161.583,206.932,166.113,206.932,171.701z"/>
						</g>
						<g>
							<circle style="fill:#331510;" cx="291.886" cy="171.701" r="10.118"/>
						</g>
					</g>
					<g>
						<path style="fill:#331510;" d="M230.928,217.08c-1.519,0-3.004-0.15-4.423-0.447c-3.195-0.671-5.675-3.278-6.171-6.488        c-4.704-30.435,14.543-72.096,15.363-73.855c0.265-0.561,0.934-0.797,1.491-0.542c0.562,0.262,0.803,0.93,0.542,1.491        c-0.198,0.425-19.779,42.807-15.18,72.562c0.354,2.293,2.129,4.156,4.414,4.635c1.472,0.309,3.021,0.436,4.626,0.389        c2.371-0.074,4.805-0.657,7.159-1.22c3.361-0.803,6.841-1.636,10.392-1.11c1.486,0.221,2.9,0.669,4.268,1.103        c0.759,0.24,1.519,0.482,2.29,0.682c2.42,0.626,4.315,0.599,5.793-0.087c1.458-0.675,2.693-2.502,2.134-4.042        c-0.21-0.581,0.091-1.226,0.673-1.437c0.583-0.208,1.226,0.092,1.437,0.673c1.018,2.808-0.92,5.737-3.3,6.842        c-1.973,0.912-4.358,0.983-7.301,0.222c-0.808-0.209-1.606-0.462-2.404-0.715c-1.343-0.425-2.61-0.828-3.918-1.021        c-3.123-0.457-6.243,0.284-9.541,1.071c-2.463,0.59-5.01,1.199-7.611,1.281C231.415,217.077,231.171,217.08,230.928,217.08z"/>
					</g>
					<g>
						<g>
							<path style="fill:#331510;" d="M183.388,129.413c-3.954,1.733-7.812,4.159-10.019,7.87         c-2.206,3.711-2.298,8.933,0.722,12.018c1.871,1.91,4.627,2.743,7.3,2.814c2.673,0.071,5.311-0.543,7.914-1.152         c2.471-0.579,4.941-1.157,7.412-1.736c3.005-0.704,6.055-1.425,8.743-2.942c2.687-1.517,5.008-3.967,5.635-6.989         C214.398,123.381,191.221,125.979,183.388,129.413z"/>
						</g>
						<g>
							<path style="fill:#331510;" d="M305.935,130.558c3.954,1.733,7.812,4.159,10.019,7.87c2.206,3.711,2.298,8.933-0.722,12.018         c-1.871,1.91-4.627,2.743-7.3,2.814c-2.673,0.071-5.311-0.543-7.914-1.152c-2.471-0.579-4.941-1.157-7.412-1.736         c-3.005-0.704-6.056-1.425-8.742-2.942c-2.687-1.517-5.008-3.967-5.635-6.989         C274.925,124.526,298.102,127.125,305.935,130.558z"/>
						</g>
					</g>
					<g>
						<path style="fill:#331510;" d="M245.696,235.116c-4.56,0-8.961-1.713-11.887-4.719c-0.941-0.967-1.665-1.992-2.152-3.044        c-0.259-0.563-0.013-1.229,0.549-1.489c0.565-0.257,1.229-0.012,1.489,0.549c0.378,0.822,0.958,1.635,1.721,2.42        c2.954,3.034,7.695,4.528,12.387,3.9c5.363-0.721,9.534-3.769,12.088-6.199c0.448-0.427,1.157-0.411,1.585,0.039        c0.427,0.448,0.41,1.158-0.039,1.585c-2.794,2.659-7.376,5.997-13.335,6.798C247.3,235.063,246.495,235.116,245.696,235.116z"/>
					</g>
				</g>
				<g style="opacity:0.28;">
					<circle style="fill:#D3542B;" cx="191.659" cy="231.455" r="31.691"/>
				</g>
				<g style="opacity:0.28;">
					<circle style="fill:#D3542B;" cx="306.204" cy="231.455" r="31.691"/>
				</g>
			</g>
		</g>
		<g>
			<g>
				<path style="fill:#FADED3;" d="M424.495,315.073c0,0,14.272,0.733,16.853-2.585c2.58-3.318,5.371-17.693,5.371-17.693      s1.304,13.425,3.429,17.223c2.485,4.442,15.639,7.141,15.639,7.141s-12.277-0.381-15.519,3.249      c-2.209,2.475-6.205,13.069-6.607,17.422c0,0-0.29-16.348-3.825-18.791C436.303,318.596,424.495,315.073,424.495,315.073z"/>
			</g>
			<g>
				<path style="fill:#FADED3;" d="M126.679,315.073c0,0,14.272,0.733,16.853-2.585c2.58-3.318,5.371-17.693,5.371-17.693      s1.304,13.425,3.429,17.223c2.485,4.442,15.639,7.141,15.639,7.141s-12.277-0.381-15.519,3.249      c-2.21,2.475-6.205,13.069-6.607,17.422c0,0-0.291-16.348-3.825-18.791C138.487,318.596,126.679,315.073,126.679,315.073z"/>
			</g>
			<g>
				<path style="fill:#FADED3;" d="M373.331,115.002c0,0,14.272,0.733,16.853-2.585c2.58-3.318,5.371-17.693,5.371-17.693      s1.304,13.425,3.429,17.223c2.485,4.441,15.639,7.14,15.639,7.14s-12.277-0.381-15.518,3.249      c-2.21,2.475-6.205,13.069-6.607,17.422c0,0-0.291-16.348-3.825-18.791C385.14,118.525,373.331,115.002,373.331,115.002z"/>
			</g>
			<g>
				<path style="fill:#FADED3;" d="M97.661,115.002c0,0,14.272,0.733,16.853-2.585c2.58-3.318,5.371-17.693,5.371-17.693      s1.304,13.425,3.429,17.223c2.485,4.441,15.639,7.14,15.639,7.14s-12.277-0.381-15.519,3.249      c-2.21,2.475-6.205,13.069-6.607,17.422c0,0-0.291-16.348-3.825-18.791C109.469,118.525,97.661,115.002,97.661,115.002z"/>
			</g>
			<g>
				<path style="fill:#FADED3;" d="M443.273,219.094c0,4.007-3.248,7.255-7.255,7.255c-4.006,0-7.254-3.248-7.254-7.255      s3.248-7.254,7.254-7.254C440.025,211.839,443.273,215.087,443.273,219.094z"/>
			</g>
			<g>
				<path style="fill:#FADED3;" d="M88.949,343.565c0,4.007-3.248,7.254-7.255,7.254c-4.006,0-7.254-3.248-7.254-7.254      c0-4.007,3.248-7.254,7.254-7.254C85.701,336.311,88.949,339.559,88.949,343.565z"/>
			</g>
			<g>
				<path style="fill:#FADED3;" d="M67.569,219.094c0,4.007-3.248,7.255-7.255,7.255c-4.006,0-7.254-3.248-7.254-7.255      s3.248-7.254,7.254-7.254C64.321,211.839,67.569,215.087,67.569,219.094z"/>
			</g>
			<g>
				<circle style="fill:#FADED3;" cx="345.531" cy="320.036" r="7.254"/>
			</g>
		</g>
	</g>
</g>















</svg>
