<?xml version="1.0" encoding="UTF-8"?>
<!-- Generator: Adobe Illustrator 25.2.3, SVG Export Plug-In . SVG Version: 6.00 Build 0)  -->
<svg xmlns="http://www.w3.org/2000/svg" xmlns:xlink="http://www.w3.org/1999/xlink" version="1.1" id="Capa_1" x="0px" y="0px" viewBox="0 0 511.813 511.813" style="enable-background:new 0 0 511.813 511.813;" xml:space="preserve" width="512" height="512">
<g>
	<g>
		<path style="fill:#FFFFFF;" d="M255.846,511.81c-55.865,0.253-110.984-19.225-154.877-53.671    c-28.664-22.494-52.302-51.452-68.677-83.999C6.835,323.541-0.483,264.412,11.34,209.058    c10.875-50.915,38.532-98.295,77.376-133.218c21.803-19.603,47.071-35.382,74.304-46.257c3.483-1.391,6.225-5.939,10.897-9.563    c9.905-7.682,22.546-8.462,35.025-7.523c5.621,0.423,11.851,2.167,17.411,0.998C242.583,10.082,256.414,0,273.481,0    c9.005,0,16.69,1.915,25.111,5.213c8.208,3.475,13.213,8.146,18.565,14.15c37.195,9.316,72.065,27.416,101.17,52.362    c27.623,23.676,49.797,53.187,65.064,86.191c15.018,32.469,22.589,68.233,22.589,103.975c0,39.621-9.555,79.246-27.716,114.467    c-16.44,31.882-39.938,59.998-68.202,82.063c-13.289,10.375-27.623,19.418-42.729,26.907    C332.694,502.512,294.326,511.636,255.846,511.81z"/>
	</g>
	<g>
		<g>
			<path style="fill:#7EA8C5;" d="M491.95,261.564c0.302,43.082-10.774,85.791-34.565,123.956     c-11.397,18.283-25.495,35.709-41.35,50.254c-12.759,11.705-51.459,0.201-66.488,8.851c-26.502,15.252-55.247-13.988-85.53-9.717     c-17.561,2.477-32.245,17.725-49.9,16.154c-49.276-4.383-75.125,20.175-112.06-11.671c-16.788-14.476-30.898-30.72-43.202-49.475     C16.513,325.376,9.31,241.228,39.177,170.123c2.531-6.026,5.321-11.944,8.362-17.73c24.742-47.07,65.36-85.472,114.121-106.836     C229,16.054,312.088,20.566,375.545,57.646c6.502,3.8,12.811,7.93,18.894,12.369c42.191,30.785,73.602,75.636,88.096,125.814     C488.701,217.173,491.794,239.355,491.95,261.564z"/>
		</g>
		<g>
			<g>
				<g>
					<g>
						<path style="fill:#FF8476;" d="M310.862,403.935c-0.655-0.351-1.264-0.749-1.872-1.193c-0.07-0.07-0.14-0.117-0.21-0.187        c-4.493-3.486-7.745-9.874-10.132-17.128c-1.591-4.961-2.808-10.342-3.697-15.467c-1.147-6.458-1.778-12.518-2.082-16.847        c-0.047-0.468-0.094-0.913-0.117-1.334c-0.258-3.276-0.304-5.288-0.304-5.288l-37.017-0.889l-0.023-0.421l-3.908,0.328        l-3.908-0.094v0.421l-36.899,3.042c0,0,0.07,2.691-0.023,6.949v0.094c-0.094,3.791-0.304,8.868-0.866,14.367        c-0.515,5.288-1.357,10.927-2.644,16.262c-2.036,8.4-5.218,15.958-10.179,19.842c-0.093,0.07-0.187,0.14-0.257,0.211        c-0.351,0.234-0.702,0.491-1.053,0.702l10.91,51.256l47.749-15.87l46.914,20.603L310.862,403.935z"/>
					</g>
					<g>
						<path style="fill:#331510;" d="M294.951,369.96c-3.697,4.493-8.493,8.119-14.741,10.763        c-14.273,6.037-30.559,6.084-45.627,2.504c-6.341-1.498-12.588-3.65-18.017-7.254c-2.503-1.661-4.726-3.58-6.762-5.686        c0.562-5.545,0.772-10.646,0.866-14.46c27.259,4.212,55.384,2.831,82.083-4.048C293.056,356.155,293.687,362.8,294.951,369.96        z"/>
					</g>
				</g>
				<g>
					<g>
						<path style="fill:#FADED3;" d="M416.034,435.774c-9.615,9.206-20.39,16.98-31.579,24.152        c-11.271,7.224-23.076,13.634-35.406,18.863c-0.062,0.026-0.124,0.053-0.186,0.079c-18.474,7.813-38.26,13.284-58.103,16.216        c-17.667,2.61-35.641,2.98-53.428,1.507c-13.894-1.15-27.688-3.518-41.162-7.098c-12.005-3.19-23.752-7.344-35.095-12.408        c-15.964-7.128-31.178-16.011-45.159-26.507c-4.748-3.564-9.39-7.278-13.859-11.187        c36.507-14.823,82.666-26.032,93.031-32.313c0.211-0.14,0.446-0.279,0.657-0.442c0.141-0.07,0.258-0.163,0.398-0.256        c0.071-0.07,0.165-0.14,0.258-0.21c0.071-0.07,0.164-0.116,0.235-0.186c4.834-3.914,7.972-11.367,10.014-19.62        c29.21,10.867,63.682,9.823,92.713-1.517c2.291,7.075,4.562,13.407,8.878,16.956c0.761,0.626,1.383,1.152,2.258,1.613        C322.268,409.752,377.667,420.546,416.034,435.774z"/>
					</g>
					<g>
						<g>
							<path style="fill:#FFC17D;" d="M309.458,401.97c-0.14-0.117-0.327-0.117-0.491-0.023l-0.421,0.281         c-0.023,0.023-0.07,0.047-0.094,0.047c-16.004,11.372-35.589,18.017-55.08,18.719c-19.444,0.679-39.357-4.563-56.157-14.788         c0-0.023-0.023-0.023-0.023-0.023l-0.538-0.304c-0.14-0.094-0.328-0.07-0.468,0.047c-0.117,0.14-0.164,0.328-0.07,0.491         l0.211,0.445l45.183,90.038c0.304,0.023,0.632,0.047,0.936,0.07l-44.996-89.664c16.8,10.061,36.619,15.209,55.97,14.507         c19.374-0.702,38.819-7.207,54.846-18.368l-39.614,93.688c0.304-0.023,0.608-0.023,0.889-0.047l39.801-94.086l0.024-0.047         l0.21-0.492C309.646,402.297,309.598,402.087,309.458,401.97z"/>
						</g>
					</g>
				</g>
			</g>
			<g>
				<g>
					<g>
						<path style="fill:#FF8476;" d="M158.771,290.82c-9.163,6.947-21.921,8.847-32.71,4.872s-19.265-13.699-21.729-24.931        c-2.465-11.231,1.16-23.61,9.294-31.738c2.141-2.14,4.591-4.01,7.366-5.217c3.515-1.529,7.449-1.943,11.266-1.594        c6.169,0.565,12.139,3.126,16.8,7.206C151.793,255.943,154.278,274.685,158.771,290.82z"/>
					</g>
					<g>
						<path style="fill:#FF8476;" d="M340.742,286.041c9.163,6.947,21.921,8.847,32.71,4.872        c10.789-3.975,19.265-13.699,21.729-24.931c2.465-11.231-1.16-23.611-9.294-31.739c-2.141-2.139-4.591-4.01-7.366-5.217        c-3.515-1.529-7.449-1.943-11.266-1.594c-6.169,0.565-12.139,3.126-16.801,7.206        C347.721,251.163,345.235,269.906,340.742,286.041z"/>
					</g>
					<g>
						<g>
							<path style="fill:#331510;" d="M351.669,281.859c-0.075,0-0.151-0.009-0.229-0.03c-0.468-0.127-0.745-0.608-0.619-1.076         c2.655-9.862,5.402-20.059,10.701-29.107c5.998-10.24,14.455-17.143,23.81-19.438c0.459-0.118,0.944,0.174,1.06,0.643         c0.114,0.471-0.174,0.946-0.644,1.061c-11.994,2.942-19.377,12.929-22.713,18.62c-5.178,8.844-7.892,18.927-10.518,28.677         C352.412,281.601,352.058,281.859,351.669,281.859z"/>
						</g>
						<g>
							<path style="fill:#331510;" d="M145.304,286.716c-0.402,0-0.765-0.276-0.857-0.685c-2.895-12.883-8.098-24.968-15.463-35.923         c-3.076-4.578-7.383-10.096-13.438-12.157c-0.457-0.157-0.704-0.655-0.548-1.113c0.158-0.46,0.656-0.71,1.115-0.548         c6.551,2.23,11.098,8.033,14.329,12.841c7.486,11.134,12.773,23.42,15.719,36.517c0.105,0.472-0.192,0.941-0.665,1.048         C145.432,286.709,145.368,286.716,145.304,286.716z"/>
						</g>
					</g>
				</g>
				<g>
					<g>
						<path style="fill:#FF8476;" d="M357.075,191.569c0,4.797-0.328,9.523-0.889,14.133c-0.14,7.16-0.328,15.209-0.585,23.703        c-0.398,11.372-0.913,23.445-1.662,34.887c-0.047,0.725-0.093,1.427-0.14,2.129c-0.398,5.92-0.866,11.699-1.404,17.058        c-0.983,10.085-2.199,18.883-3.721,25.154c-2.293,9.476-7.136,17.198-13.454,23.399h-0.023        c-0.842,0.842-1.708,1.638-2.597,2.387l-0.024,0.023c-3.486,3.065-7.324,5.709-11.395,8.026        c-11.231,6.388-24.124,10.131-35.589,12.12h-0.023c-2.293,0.398-4.539,0.749-6.692,1.006        c-12.354,1.497-34.279,3.135-56.18,1.568h-0.023c-13.852-1.006-27.681-3.299-39.052-7.768        c-4.001-1.544-7.698-3.369-10.974-5.522c-2.831-1.825-5.359-3.884-7.488-6.201c-1.989-2.176-3.791-4.89-5.429-8.143        c-3.978-7.885-6.949-18.672-9.172-30.582c-1.568-8.354-2.738-17.268-3.65-26.113c-0.047-0.491-0.094-0.983-0.14-1.474        c-1.147-11.442-1.778-22.697-2.176-32.501c-0.725-17.947-0.515-30.933-0.515-30.933s-0.585-10.81-0.585-16.356        c0-60.579,47.827-109.646,106.792-109.646h1.006c2.691,0.023,5.358,0.164,7.956,0.374c50.33,4.329,90.693,44.411,96.964,95.42        l0.281-0.047c0,0,0,0.796,0,2.246C356.864,183.73,357.075,187.638,357.075,191.569z"/>
					</g>
				</g>
				<g>
					<path style="fill:#331510;" d="M139.221,243.698c11.332-8.435,21.752-28.101,22.206-42.22       c8.227-5.084,14.093-14.26,16.963-23.495c2.87-9.235,3.005-19.154,1.637-28.727c6.806-1.505,13.021-5.968,18.235-10.594       c32.097,8.541,67.17,6.579,98.068-5.604c1.06,0.789,0.904,1.225,1.694,2.285c3.116,4.186,8.067,6.952,13.265,7.412       c-0.852,9.117-0.473,19.051,2.58,27.684s9.017,16.479,17.252,20.484c1.194,16.384,12.355,41.257,27.151,48.395       c1.987-18.956,1.005-47.257-0.676-66.243c-1.489-16.827-4.605-34.025-13.64-48.299c-11.812-18.66-33.772-31.856-54.985-37.998       c-34.249-9.916-70.631-5.797-103.345,8.384c-10.567,4.581-20.739,10.435-28.907,18.556       c-15.411,15.323-22.376,37.543-23.398,59.252C132.301,194.677,134.903,222.399,139.221,243.698z"/>
				</g>
				<g>
					<path style="fill:#331510;" d="M169.661,73.942c-4.357-10.25-3.383-22.601,2.526-32.041c5.91-9.44,16.594-15.713,27.717-16.273       c8.755-0.441,17.46,2.43,26.196,1.709c10.122-0.836,19.154-6.354,28.65-9.955c12.508-4.743,27.301-5.968,38.742,0.964       c5.163,3.128,9.322,7.73,12.559,12.826c6.896,10.854,9.751,24.213,7.894,36.937c-1.857,12.725-8.41,24.71-18.121,33.141       c-13.876,12.047-33.022,16.295-51.397,16.519C214.82,118.132,181.897,102.728,169.661,73.942z"/>
				</g>
				<g>
					<g>
						<path style="fill:#331510;" d="M247.861,283.486c-0.169,0-0.343-0.009-0.519-0.027c-1.268-0.134-2.308-0.754-3.316-1.355        c-0.32-0.191-0.638-0.382-0.962-0.553c-2.342-1.234-5.219-1.434-7.707-0.536l-0.436,0.165c-1.021,0.386-2.29,0.868-3.54,0.367        c-1.625-0.656-2.301-2.446-2.013-5.322c1.871-18.769,2.248-37.838,1.127-56.677c-0.03-0.484,0.338-0.899,0.823-0.929        c0.544-0.048,0.9,0.34,0.928,0.824c1.129,18.931,0.749,38.095-1.131,56.957c-0.137,1.38-0.089,3.11,0.925,3.52        c0.61,0.248,1.408-0.058,2.258-0.38l0.466-0.174c2.941-1.063,6.35-0.827,9.12,0.634c0.352,0.185,0.697,0.391,1.044,0.598        c0.882,0.527,1.716,1.024,2.598,1.116c1.554,0.167,2.909-0.892,4.358-2.006c1.27-0.977,2.584-1.987,4.188-2.367        c1.414-0.337,2.813-0.122,4.161,0.086l0.848,0.126c1.817,0.243,3.044,0.054,3.859-0.601c0.452-0.362,0.727-1.051,0.665-1.675        c-0.027-0.283-0.135-0.659-0.489-0.845c-0.43-0.224-0.596-0.755-0.37-1.184c0.224-0.428,0.756-0.595,1.184-0.37        c0.809,0.423,1.328,1.235,1.424,2.23c0.117,1.218-0.4,2.479-1.316,3.214c-1.6,1.28-3.731,1.168-5.189,0.97l-0.882-0.13        c-1.234-0.19-2.404-0.369-3.487-0.113c-1.241,0.295-2.349,1.148-3.526,2.051C251.423,282.273,249.846,283.486,247.861,283.486        z"/>
					</g>
					<g>
						<g>
							<path style="fill:#FF5E5E;" d="M285.007,292.521c-5.116,2.206-11.025,1.095-16.343-0.563         c-3.161-0.985-6.337-2.163-9.647-2.183c-3.31-0.02-7.014,1.764-8.482,4.731c-2.751-2.947-7.189-3.754-11.183-3.208         c-3.994,0.547-7.722,2.242-11.504,3.635c-3.783,1.393-7.837,2.508-11.811,1.829c17.366,5.986,36.471,5.973,54.491,2.41         C276.014,298.088,281.054,296.477,285.007,292.521z"/>
						</g>
						<g>
							<path style="fill:#331510;" d="M250.312,312.269c-3.601,0-7.1-0.881-9.992-2.539c-0.42-0.24-0.567-0.777-0.324-1.197         c0.24-0.42,0.781-0.563,1.197-0.324c3.032,1.738,6.835,2.533,10.637,2.25c3.512-0.262,7.072-1.379,10.582-3.321         c0.425-0.232,0.957-0.081,1.193,0.343c0.235,0.424,0.08,0.959-0.343,1.193c-3.734,2.066-7.536,3.254-11.299,3.535         C251.411,312.249,250.861,312.269,250.312,312.269z"/>
						</g>
					</g>
					<g>
						<g>
							<g>
								<g>
									<g>
										<path style="fill:#331510;" d="M205.771,238.477c-0.27,6.444-5.663,11.449-12.045,11.182            c-6.382-0.268-11.336-5.708-11.066-12.152c0.27-6.443,5.663-11.449,12.045-11.181            C201.087,226.593,206.041,232.034,205.771,238.477z"/>
									</g>
									<g>
										<path style="fill:#331510;" d="M308.565,234.555c-0.27,6.444-5.663,11.45-12.045,11.182            c-6.382-0.268-11.336-5.708-11.066-12.152c0.27-6.443,5.663-11.449,12.045-11.181            C303.882,222.671,308.836,228.112,308.565,234.555z"/>
									</g>
								</g>
							</g>
						</g>
						<g>
							<path style="fill:#331510;" d="M327.927,210.581c-16.541-0.719-33.083-1.439-49.624-2.158         c-1.939-0.084-4.194-0.346-5.206-2.002c-0.526-0.861-0.581-1.926-0.533-2.934c0.002-0.033,0.003-0.066,0.005-0.099         c0.281-5.26,4.734-9.443,9.995-9.704c12.026-0.597,23.81,1.316,35.138,5.864C322.508,201.478,325.963,205.79,327.927,210.581         z"/>
						</g>
						<g>
							<path style="fill:#331510;" d="M165.613,210.88c16.541-0.719,33.083-1.439,49.624-2.158c1.939-0.084,4.194-0.346,5.206-2.001         c0.526-0.861,0.581-1.926,0.533-2.934c-0.001-0.033-0.003-0.066-0.005-0.099c-0.281-5.26-4.734-9.443-9.995-9.704         c-12.026-0.597-23.81,1.316-35.138,5.864C171.033,201.777,167.577,206.088,165.613,210.88z"/>
						</g>
						<g style="opacity:0.37;">
							<path style="fill:#FF5E5E;" d="M218.484,302.245c0,23.094-18.719,41.813-41.837,41.813c-1.357,0-2.667-0.07-4.001-0.187         c-2.831-1.825-5.359-3.884-7.488-6.201c-1.989-2.176-3.791-4.89-5.429-8.143c-3.978-7.885-6.949-18.672-9.172-30.582         c-1.568-8.354-2.738-17.268-3.65-26.113c7.581-7.651,18.111-12.401,29.739-12.401         C199.765,260.431,218.484,279.15,218.484,302.245z"/>
						</g>
						<g style="opacity:0.37;">
							<path style="fill:#FF5E5E;" d="M353.939,264.292c-0.047,0.725-0.093,1.427-0.14,2.129c-0.398,5.92-0.866,11.699-1.404,17.058         c-0.983,10.085-2.199,18.883-3.721,25.154c-2.293,9.476-7.136,17.198-13.454,23.399h-0.023         c-0.842,0.842-1.708,1.638-2.597,2.387l-0.024,0.023c-2.761,0.562-5.639,0.866-8.564,0.866         c-23.094,0-41.813-18.719-41.813-41.813c0-23.118,18.719-41.837,41.813-41.837         C335.735,251.657,346.358,256.5,353.939,264.292z"/>
						</g>
					</g>
				</g>
				<g>
					<path style="fill:#FFC17D;" d="M362.957,355.237c-12.074,0-23.387-6.426-29.58-16.82c-0.112-0.19-0.05-0.436,0.139-0.551       c0.185-0.114,0.436-0.053,0.551,0.139c6.046,10.152,17.097,16.429,28.89,16.429c0.091,0,0.183,0,0.274-0.002       c8.973-0.073,17.382-3.638,23.677-10.036c6.293-6.398,9.718-14.864,9.643-23.84c-0.073-8.973-3.635-17.382-10.034-23.675       c-6.332-6.228-14.688-9.647-23.556-9.647c-0.096,0-0.19,0-0.286,0.001c-1.417,0.011-2.854,0.113-4.266,0.304       c-0.194,0.023-0.42-0.125-0.45-0.344c-0.03-0.219,0.123-0.422,0.345-0.451c1.444-0.195,2.913-0.299,4.367-0.311       c9.179-0.112,17.857,3.433,24.409,9.876c6.551,6.444,10.2,15.054,10.276,24.243c0.155,18.968-15.15,34.527-34.12,34.684       C363.145,355.237,363.051,355.237,362.957,355.237z"/>
				</g>
				<g>
					<path style="fill:#FFC17D;" d="M131.747,355.833c-0.096,0-0.19,0-0.283,0c-9.19-0.075-17.8-3.725-24.244-10.276       c-6.444-6.551-9.951-15.221-9.876-24.409c0.075-9.188,3.725-17.798,10.276-24.242c6.483-6.376,15.038-9.877,24.118-9.877       c0.098,0,0.194,0,0.29,0.001c1.462,0.011,2.932,0.115,4.369,0.311c0.219,0.03,0.372,0.232,0.343,0.451       s-0.238,0.368-0.452,0.344c-1.403-0.191-2.838-0.292-4.264-0.304c-8.964-0.118-17.442,3.351-23.842,9.645       c-6.398,6.294-9.96,14.702-10.034,23.675c-0.075,8.976,3.35,17.442,9.643,23.842c6.295,6.398,14.704,9.96,23.677,10.034       c0.094,0.002,0.187,0.002,0.279,0.002c11.791,0,22.839-6.277,28.885-16.429c0.114-0.19,0.363-0.256,0.551-0.139       c0.19,0.114,0.251,0.361,0.139,0.551C155.132,349.408,143.819,355.833,131.747,355.833z"/>
				</g>
				<g>
					<path style="fill:#331510;" d="M197.421,99.418c-0.05,0-0.103-0.005-0.155-0.014c-10.061-1.823-19.615-4.025-25.946-10.848       c-3.322-3.577-5.69-8.511-6.846-14.268c-1.933-9.62-0.203-20,4.739-28.478c4.945-8.476,13.127-15.09,22.45-18.148       c0.459-0.149,0.957,0.099,1.108,0.561c0.151,0.46-0.101,0.956-0.56,1.107c-8.923,2.925-16.752,9.253-21.482,17.364       c-4.732,8.112-6.384,18.044-4.538,27.249c1.095,5.438,3.311,10.079,6.412,13.419c5.966,6.428,15.218,8.547,24.973,10.315       c0.478,0.087,0.795,0.544,0.708,1.02C198.207,99.121,197.839,99.418,197.421,99.418z"/>
				</g>
				<g>
					<path style="fill:#331510;" d="M188.178,99.725c-4.207,0-8.509-0.511-12.458-2.183c-9.483-4.016-16.036-14.916-15.936-26.507       c0.107-12.441,6.755-22.762,12.312-29.23c4.088-4.761,8.754-8.888,13.866-12.268c0.402-0.265,0.946-0.155,1.216,0.248       c0.267,0.404,0.158,0.949-0.247,1.217c-4.977,3.29-9.522,7.31-13.505,11.946c-7.584,8.829-11.807,18.809-11.887,28.104       c-0.094,10.9,6.019,21.13,14.866,24.876c6.946,2.94,14.944,2.084,21.998,1.328c0.519-0.056,0.916,0.299,0.967,0.779       c0.05,0.482-0.297,0.914-0.779,0.967C195.387,99.343,191.818,99.725,188.178,99.725z"/>
				</g>
				<g>
					<path style="fill:#331510;" d="M289.697,100.293c-0.286,0-0.564-0.139-0.733-0.395c-0.265-0.404-0.153-0.948,0.251-1.216       c10.301-6.78,18.079-15.584,22.489-25.461c4.904-10.97,5.422-23.114,1.424-33.316c-4.275-10.922-13.993-19.242-24.756-21.194       c-0.475-0.087-0.793-0.544-0.706-1.02c0.087-0.475,0.51-0.794,1.021-0.707c11.347,2.059,21.582,10.805,26.077,22.281       c4.166,10.637,3.635,23.274-1.456,34.671c-4.549,10.184-12.547,19.248-23.129,26.213       C290.031,100.246,289.864,100.293,289.697,100.293z"/>
				</g>
				<g>
					<path style="fill:#331510;" d="M296.607,96.196c-0.354,0-0.69-0.217-0.823-0.57c-0.169-0.454,0.062-0.959,0.514-1.129       c14.142-5.297,24.329-20.103,24.219-35.205c-0.112-15.104-10.511-29.76-24.729-34.85c-0.457-0.163-0.695-0.665-0.532-1.122       c0.167-0.457,0.672-0.697,1.122-0.53c14.887,5.329,25.777,20.675,25.894,36.488c0.114,15.815-10.55,31.317-25.357,36.862       C296.813,96.178,296.71,96.196,296.607,96.196z"/>
				</g>
			</g>
		</g>
		<g>
			<g>
				<path style="fill:#FADED3;" d="M80.906,372.229c0,0,14.05,0.722,16.59-2.545c2.54-3.267,5.288-17.418,5.288-17.418      s1.283,13.216,3.376,16.955c2.446,4.372,15.395,7.029,15.395,7.029s-12.086-0.375-15.277,3.198      c-2.175,2.436-6.108,12.865-6.504,17.15c0,0-0.286-16.093-3.765-18.498C92.53,375.696,80.906,372.229,80.906,372.229z"/>
			</g>
			<g>
				<path style="fill:#FADED3;" d="M33.505,250.226c0,0,14.05,0.722,16.59-2.545c2.54-3.267,5.288-17.417,5.288-17.417      s1.283,13.216,3.376,16.954c2.447,4.372,15.395,7.029,15.395,7.029s-12.086-0.375-15.276,3.198      c-2.175,2.436-6.108,12.865-6.504,17.15c0,0-0.286-16.093-3.765-18.498C45.13,253.693,33.505,250.226,33.505,250.226z"/>
			</g>
			<g>
				<path style="fill:#FADED3;" d="M143.297,78.882c0,0,13.69-3.242,15.213-7.09c1.523-3.847,0.198-18.201,0.198-18.201      s4.934,12.327,7.989,15.33c3.573,3.512,16.748,2.436,16.748,2.436s-11.707,3.025-13.769,7.349      c-1.406,2.948-2.26,14.061-1.44,18.285c0,0-4.782-15.369-8.796-16.703C155.427,78.955,143.297,78.882,143.297,78.882z"/>
			</g>
			<g>
				<path style="fill:#FADED3;" d="M369.716,377.774c0,0,14.049,0.722,16.59-2.545c2.54-3.267,5.287-17.417,5.287-17.417      s1.283,13.216,3.376,16.954c2.447,4.372,15.395,7.029,15.395,7.029s-12.085-0.375-15.276,3.198      c-2.175,2.436-6.108,12.865-6.504,17.15c0,0-0.286-16.093-3.765-18.498C381.34,381.241,369.716,377.774,369.716,377.774z"/>
			</g>
			<g>
				<g>
					<path style="fill:#FADED3;" d="M412.974,202.433c0,0,14.049,0.722,16.59-2.545c2.54-3.267,5.287-17.417,5.287-17.417       s1.283,13.216,3.376,16.954c2.447,4.372,15.395,7.029,15.395,7.029s-12.086-0.375-15.277,3.198       c-2.175,2.436-6.108,12.865-6.504,17.15c0,0-0.286-16.093-3.765-18.498C424.598,205.9,412.974,202.433,412.974,202.433z"/>
				</g>
				<g>
					<circle style="fill:#FADED3;" cx="379.064" cy="87.638" r="7.141"/>
				</g>
			</g>
			<g>
				<circle style="fill:#FADED3;" cx="103.697" cy="172.471" r="7.141"/>
			</g>
			<g>
				<circle style="fill:#FADED3;" cx="179.447" cy="376.722" r="7.141"/>
			</g>
			<g>
				<path style="fill:#FADED3;" d="M461.246,305.204c0,3.944-3.197,7.141-7.141,7.141c-3.944,0-7.142-3.197-7.142-7.141      s3.197-7.141,7.142-7.141C458.048,298.062,461.246,301.26,461.246,305.204z"/>
			</g>
		</g>
	</g>
</g>















</svg>
